# xmcd
#
# Track frame offsets:
#	150
#	20254
#	34148
#	51913
#	65565
#	80436
#	95483
#	108693
#	126528
#	135464
#
# Disc length: 2199 seconds
#
# Revision: 0
# Processed by: cddbd v1.4PL0 Copyright (c) Steve Scherf et al.
# Submitted via: EasyCDDAExtractor 4.5.0.1
#
DISCID=8b08950a
DTITLE=Neil Young - Harvest
DYEAR=1972
DGENRE=Country
TTITLE0=Out On The Weekend
TTITLE1=Harvest
TTITLE2=A Man Needs A Maid
TTITLE3=Heart Of Gold
TTITLE4=Are You Ready For The Country
TTITLE5=Old Man
TTITLE6=There´s A World
TTITLE7=Alabama
TTITLE8=The Needle And The Damage Done
TTITLE9=Words (Between The Lines Of Age)
EXTD=
EXTT0=
EXTT1=
EXTT2=
EXTT3=
EXTT4=
EXTT5=
EXTT6=
EXTT7=
EXTT8=
EXTT9=
PLAYORDER=
